<?xml version="1.0" encoding="UTF-8" standalone="no"?>
<!-- Created with Inkscape (http://www.inkscape.org/) -->

<svg
   version="1.1"
   id="svg1"
   width="315"
   height="312"
   viewBox="0 0 315 312"
   sodipodi:docname="IsotipoEconofarmaEditar.svg"
   xml:space="preserve"
   inkscape:version="1.4 (86a8ad7, 2024-10-11)"
   xmlns:inkscape="http://www.inkscape.org/namespaces/inkscape"
   xmlns:sodipodi="http://sodipodi.sourceforge.net/DTD/sodipodi-0.dtd"
   xmlns:xlink="http://www.w3.org/1999/xlink"
   xmlns="http://www.w3.org/2000/svg"
   xmlns:svg="http://www.w3.org/2000/svg"><defs
     id="defs1"><rect
       x="31.482536"
       y="22.602846"
       width="103.3273"
       height="70.230272"
       id="rect1" /><pattern
       inkscape:collect="always"
       xlink:href="#halftones"
       preserveAspectRatio="xMidYMid"
       id="pattern83"
       patternTransform="matrix(0.60293324,0,0,0.60293324,-59.829311,-129.25782)"
       x="0"
       y="0" /><pattern
       patternUnits="userSpaceOnUse"
       width="10"
       height="10"
       preserveAspectRatio="xMidYMid"
       style="fill:#2876a6"
       id="halftones"
       x="0"
       y="0"
       inkscape:label="Semitonos"
       inkscape:collect="always"
       inkscape:isstock="true"><g
         id="fullPattern"
         style="display:inline"
         transform="scale(0.1)"><circle
           style="fill-opacity:1;stroke:none;paint-order:markers fill stroke;stop-color:#000000"
           id="circle10"
           cx="50"
           cy="50"
           r="25" /><path
           id="circle37"
           style="paint-order:markers fill stroke"
           d="M 25,0 A 25,25 0 0 1 0,25 25,25 0 0 1 -25,0 25,25 0 0 1 0,-25 25,25 0 0 1 25,0 Z" /><path
           id="circle39"
           style="paint-order:markers fill stroke"
           d="M 125,0 A 25,25 0 0 1 100,25 25,25 0 0 1 75,0 25,25 0 0 1 100,-25 25,25 0 0 1 125,0 Z" /><path
           id="circle43"
           style="paint-order:markers fill stroke"
           d="M 25,100 A 25,25 0 0 1 0,125 25,25 0 0 1 -25,100 25,25 0 0 1 0,75 25,25 0 0 1 25,100 Z" /><path
           id="circle45"
           style="paint-order:markers fill stroke"
           d="m 125,100 a 25,25 0 0 1 -25,25 25,25 0 0 1 -25,-25 25,25 0 0 1 25,-25 25,25 0 0 1 25,25 z" /></g></pattern><clipPath
       clipPathUnits="userSpaceOnUse"
       id="clipPath52"><path
         id="path52"
         style="stroke-width:0.1;stroke-linecap:square;paint-order:markers fill stroke;stop-color:#000000"
         d="m -880.82767,-187.29769 h 1640.84 v 73.28155 h -1640.84 z" /></clipPath></defs><sodipodi:namedview
     id="namedview1"
     pagecolor="#ffffff"
     bordercolor="#000000"
     borderopacity="0.25"
     inkscape:showpageshadow="2"
     inkscape:pageopacity="0.0"
     inkscape:pagecheckerboard="0"
     inkscape:deskcolor="#d1d1d1"
     showgrid="false"
     inkscape:zoom="1.2387821"
     inkscape:cx="240.15524"
     inkscape:cy="141.67141"
     inkscape:window-width="1920"
     inkscape:window-height="991"
     inkscape:window-x="-9"
     inkscape:window-y="-9"
     inkscape:window-maximized="1"
     inkscape:current-layer="g1" /><g
     inkscape:groupmode="layer"
     inkscape:label="Image"
     id="g1"><ellipse
       style="opacity:0.363139;fill:url(#pattern83);fill-opacity:1;stroke:none;stroke-width:3.46542;stroke-linecap:round;stroke-linejoin:round;stroke-dasharray:none;stroke-opacity:1;paint-order:fill markers stroke"
       id="path9"
       cx="128.77261"
       cy="251.29214"
       rx="96.734505"
       ry="13.080453" /><rect
       style="fill:#2876a6;fill-opacity:1;stroke:#2876a6;stroke-width:3.4996;stroke-linecap:round;stroke-linejoin:round;stroke-dasharray:none;stroke-opacity:1;paint-order:fill markers stroke"
       id="rect3-8"
       width="32.349773"
       height="20.542173"
       x="104.07946"
       y="67.63974"
       transform="matrix(0.95788413,-0.28715499,0.32826599,0.94458533,0,0)"
       ry="6.3168635" /><rect
       style="fill:#2876a6;fill-opacity:1;stroke:#2876a6;stroke-width:3.49959;stroke-linecap:round;stroke-linejoin:round;stroke-dasharray:none;stroke-opacity:1;paint-order:fill markers stroke"
       id="rect3-8-1"
       width="32.349773"
       height="20.542173"
       x="22.870363"
       y="66.269447"
       transform="matrix(0.95788413,-0.28715499,0.32826599,0.94458533,0,0)"
       ry="6.3168635" /><path
       style="fill:#2876a6;fill-opacity:1;stroke:#2876a6;stroke-width:3.49796;stroke-linecap:round;stroke-linejoin:round;stroke-dasharray:none;stroke-opacity:1;paint-order:fill markers stroke"
       d="m 64.58709,169.15904 c 6.888075,5.36235 14.946185,9.62789 23.423135,11.71156 16.052965,3.94586 33.573345,5.02665 49.584035,0.9126 13.30807,-3.4196 26.09575,-10.74928 35.74311,-20.53329 11.51482,-11.67791 21.06338,-26.85042 23.90553,-43.00242 0.73507,-4.17734 2.92267,-11.7934 -5.34955,-12.05715 -6.90471,-0.22015 -8.1103,1.01704 -9.01069,7.66158 -1.24727,9.20422 -6.91813,20.51551 -13.65195,28.68991 -7.69802,9.34489 -17.82754,17.45205 -29.20287,21.59796 -13.79299,5.02704 -29.60236,5.81663 -43.9564,2.73777 -14.881965,-3.1921 -28.997545,-13.83435 -36.503593,-24.33572 -2.507498,-3.50813 -7.161929,-2.86016 -9.582191,-0.76049 -2.455757,2.13046 -2.364625,4.51384 -0.608393,9.7343 1.756231,5.22045 9.08281,12.87351 15.209827,17.64339 z"
       id="path3"
       sodipodi:nodetypes="aaaasssaassaza" /><path
       style="fill:#2876a6;fill-opacity:1;stroke:#2876a6;stroke-width:3.49796;stroke-linecap:round;stroke-linejoin:round;stroke-dasharray:none;stroke-opacity:1;paint-order:fill markers stroke"
       d="m 44.358019,61.929757 c -4.334258,1.188547 -9.399485,1.678114 -13.384651,4.106638 -2.663551,1.623142 -4.968741,3.997975 -6.540226,6.692333 -1.835035,3.146211 -2.771606,6.862586 -3.041965,10.494791 -0.25441,3.417908 0.589582,6.852969 1.368883,10.190567 1.046241,4.480849 2.700129,8.808904 4.410851,13.080444 2.184079,5.45349 4.779738,10.73915 7.452817,15.97033 2.086098,4.08248 4.393529,8.04914 6.692324,12.01575 2.315046,3.99465 4.512349,7.786 7.148619,11.86368 1.2124,1.87529 6.713972,1.04066 7.757014,-1.36889 0.625657,-1.44535 -1.763005,-2.61153 -2.585673,-3.95455 -3.357035,-5.48037 -6.610695,-11.03217 -9.582191,-16.7308 -3.73298,-7.15899 -8.011759,-15.67945 -10.342682,-21.90217 -2.330925,-6.222716 -4.054398,-10.415739 -4.258753,-15.057722 -0.204355,-4.641983 0.386184,-9.020756 2.281472,-12.015766 1.895291,-2.995011 4.844944,-4.464886 7.300718,-5.323448 3.577863,-1.250846 10.592841,-2.136735 11.559471,-4.258729 1.00926,-2.215583 -2.23364,-4.900008 -6.236028,-3.802458 z"
       id="path4"
       sodipodi:nodetypes="saaaaaaasaaazzzsss" /><path
       style="fill:#2876a6;fill-opacity:1;stroke:#2876a6;stroke-width:3.49796;stroke-linecap:round;stroke-linejoin:round;stroke-dasharray:none;stroke-opacity:1;paint-order:fill markers stroke"
       d="m 155.07903,31.063148 c 4.32417,-1.224618 8.91245,-3.425535 13.57924,-3.408381 3.11913,0.01206 6.32037,0.851643 9.05892,2.344762 3.19783,1.743517 5.92164,4.439729 8.03172,7.408496 1.98558,2.793586 3.04001,6.170012 4.09938,9.429559 1.42223,4.37606 2.24538,8.935652 2.99068,13.476266 0.95149,5.797023 1.46394,11.663276 1.88197,17.522958 0.32623,4.572962 0.40312,9.161284 0.48738,13.745099 0.0849,4.616208 0.16532,8.997543 0.0182,13.850953 -0.0674,2.23207 -5.20784,4.36335 -7.34682,2.84067 -1.28304,-0.9134 0.15813,-3.14696 0.16757,-4.72188 0.0383,-6.426737 -0.0485,-12.861104 -0.45291,-19.275198 -0.50803,-8.057796 -1.25314,-17.563129 -2.47686,-24.094418 -1.22372,-6.531304 -1.91747,-11.011339 -4.14354,-15.089836 -2.22612,-4.078496 -4.99639,-7.520597 -8.16758,-9.103553 -3.1712,-1.582956 -6.4559,-1.315268 -9.00173,-0.779849 -3.70908,0.78006 -10.17102,3.650279 -12.09588,2.334136 -2.00973,-1.374145 -0.6228,-5.348953 3.37032,-6.479784 z"
       id="path4-2"
       sodipodi:nodetypes="saaaaaaasaaazzzsss" /><path
       style="fill:#af6c3f;fill-opacity:1;stroke:#af6c3f;stroke-width:3.2836;stroke-linecap:round;stroke-linejoin:round;stroke-dasharray:none;stroke-opacity:1;paint-order:fill markers stroke"
       d="m 248.99594,167.35861 c 0,0 1.03596,-5.24819 -1.02415,-9.72021 -1.1971,-2.5985 -4.50721,-5.34969 -7.72379,-6.00943 -3.85561,-0.79081 -7.95052,0.25112 -11.42487,2.96112 -2.58534,2.0165 -4.96169,6.29015 -5.6406,9.31261 -1.13643,5.0595 -1.46796,9.46317 -1.27193,14.21626 0.30778,7.46177 3.82828,22.08666 3.82828,22.08666 0,0 17.55635,-2.87151 26.07228,-5.33189 2.92539,-0.84519 5.95653,-1.63116 8.53859,-3.22294 2.49099,-1.53566 4.96621,-3.42815 6.42878,-5.93226 1.6735,-2.86526 2.79188,-5.54265 2.24928,-9.65776 -0.61812,-4.68812 -3.27266,-7.54432 -6.74852,-9.1225 -3.81166,-1.73067 -5.46407,-0.36788 -12.56412,0.93895 z"
       id="path6"
       sodipodi:nodetypes="csassacaaasacc" /><path
       style="fill:#2876a6;fill-opacity:1;stroke:#2876a6;stroke-width:3.49796;stroke-linecap:round;stroke-linejoin:round;stroke-dasharray:none;stroke-opacity:1;paint-order:fill markers stroke"
       d="m 133.33551,191.51748 c 3.26821,10.69704 6.78712,21.58145 12.77626,31.02806 4.39089,6.92572 9.71957,13.68155 16.57872,18.17573 4.79432,3.1413 10.54423,5.42036 16.2745,5.55159 5.99111,0.13717 11.95418,-2.23954 17.26317,-5.01924 5.52412,-2.89235 10.52511,-7.00438 14.52539,-11.78762 3.97422,-4.75206 9.73318,-10.12635 8.9738,-16.27452 -0.12315,-0.99686 -0.72913,-2.31079 -2.05333,-2.20542 -4.49275,0.3575 -9.7488,8.65147 -12.24392,11.48343 -3.15645,3.58254 -6.58745,6.98931 -10.72293,9.278 -4.801,2.65702 -10.26218,5.18575 -15.7377,4.828 -4.17249,-0.27263 -8.02212,-2.76005 -11.41184,-5.20826 -5.04587,-3.64435 -9.26512,-8.49824 -12.7002,-13.68884 -3.25006,-4.91101 -5.23177,-10.58083 -7.22469,-16.12242 -1.80649,-5.02325 -3.1086,-10.22516 -4.25874,-15.43799 -0.96344,-4.36666 -1.70653,-9.9744 -2.20543,-13.23253 -0.62966,-4.11221 -11.40737,1.21678 -11.40737,1.21678 1.47696,6.15803 1.84276,11.74778 3.57431,17.41525 z"
       id="path7"
       sodipodi:nodetypes="aaaaaaassaaaaaasca" /><path
       style="fill:#2876a6;fill-opacity:1;stroke:#2876a6;stroke-width:3.49796;stroke-linecap:round;stroke-linejoin:round;stroke-dasharray:none;stroke-opacity:1;paint-order:fill markers stroke"
       d="m 214.4039,220.41616 c 0,0 -1.85705,-5.02848 -2.58568,-7.60492 -0.9338,-3.30199 -1.60877,-6.67358 -2.28147,-10.03849 -0.81697,-4.08668 -1.52601,-8.19632 -2.12938,-12.31995 -0.55445,-3.78939 -1.12594,-7.58535 -1.36886,-11.40737 -0.42773,-6.72964 -1.16261,-13.56202 -0.15211,-20.22909 1.07643,-7.10213 2.59438,-14.53084 6.54023,-20.53325 2.8426,-4.32415 6.94638,-8.17272 11.71155,-10.19059 6.04436,-2.55955 13.33618,-3.56794 19.6207,-1.67309 5.70083,1.71887 10.85581,6.04236 13.99304,11.10317 3.37298,5.44109 3.99998,18.78408 3.99998,18.78408 0,0 10.2428,-2.13545 15.40787,-1.85117 4.67519,0.2573 9.93788,1.48493 13.47147,4.66188 4.41665,3.97089 7.01652,10.21301 7.57883,16.12558 0.73811,7.761 -1.79008,15.96488 -5.77975,22.66266 -2.3318,3.91459 -6.19093,6.83713 -10.03848,9.27799 -3.87956,2.46117 -8.4208,3.70899 -12.77626,5.17134 -7.01864,2.35653 -14.15503,4.49197 -21.44585,5.77973 -6.36443,1.12413 -12.47207,1.36889 -19.31649,1.67308 -6.11769,0.27189 -12.47206,-0.15209 -13.99304,0.30421 -1.52099,0.45629 1.06469,-4.56295 1.06469,-4.56295 l 4.41084,-5.32345 c 0,0 10.05474,0.4036 15.05774,2e-5 5.99008,-0.48321 11.96806,-1.42171 17.7955,-2.88988 5.72155,-1.44148 12.37023,-3.35853 16.73081,-5.77973 5.95641,-3.30729 11.4877,-7.26437 14.44935,-15.36194 1.23987,-3.39002 1.49161,-7.26527 0.76048,-10.799 -0.93726,-4.52995 -3.01252,-9.15702 -6.38812,-12.31996 -2.30269,-2.15764 -5.55526,-3.29375 -8.66959,-3.80245 -3.91853,-0.64007 -11.86368,1.06468 -11.86368,1.06468 0,0 -0.88907,-8.03342 -2.88986,-11.40736 -1.97623,-3.33255 -4.85275,-6.65179 -8.51751,-7.90913 -6.59505,-2.26269 -14.70108,-1.48533 -20.83747,1.82518 -4.60627,2.48504 -7.77604,7.46628 -9.73428,12.31998 -2.7067,6.70879 -2.37533,14.36791 -2.12938,21.59796 0.24993,7.34716 1.87424,14.61641 3.65036,21.75004 0.92964,3.73383 3.65036,10.95108 3.65036,10.95108"
       id="path8"
       sodipodi:nodetypes="caaaaaaaaacsaaaaaassccaassaaacaaaaaac" /></g></svg>
