<?xml version="1.0" encoding="UTF-8" standalone="no"?>
<!-- Created with Inkscape (http://www.inkscape.org/) -->

<svg
   version="1.1"
   id="svg1"
   width="1270.4"
   height="296"
   viewBox="0 0 1270.4 296"
   sodipodi:docname="logotipoEconofarmaEditar.svg"
   inkscape:version="1.4 (86a8ad7, 2024-10-11)"
   xmlns:inkscape="http://www.inkscape.org/namespaces/inkscape"
   xmlns:sodipodi="http://sodipodi.sourceforge.net/DTD/sodipodi-0.dtd"
   xmlns="http://www.w3.org/2000/svg"
   xmlns:svg="http://www.w3.org/2000/svg">
  <defs
     id="defs1" />
  <sodipodi:namedview
     id="namedview1"
     pagecolor="#ffffff"
     bordercolor="#000000"
     borderopacity="0.25"
     inkscape:showpageshadow="2"
     inkscape:pageopacity="0.0"
     inkscape:pagecheckerboard="0"
     inkscape:deskcolor="#d1d1d1"
     inkscape:zoom="0.49342739"
     inkscape:cx="222.93047"
     inkscape:cy="-5.0666016"
     inkscape:window-width="1920"
     inkscape:window-height="991"
     inkscape:window-x="-9"
     inkscape:window-y="-9"
     inkscape:window-maximized="1"
     inkscape:current-layer="g1" />
  <g
     inkscape:groupmode="layer"
     inkscape:label="Image"
     id="g1">
    <path
       style="fill:#b8b42e;fill-opacity:1;stroke-width:0.810993"
       d="m 634.83605,258.06947 c -1.41157,-0.37372 -4.18705,-1.10155 -5.55318,-2.46768 -6.3067,-6.30664 -9.27143,-25.75399 -7.11998,-46.70333 1.34222,-13.06933 4.80154,-34.75472 6.95363,-40.85459 0.54672,-1.54943 1.3923,-2.9126 1.27561,-3.02929 -0.11674,-0.11674 -1.21268,0.075 -2.43559,0.42557 -1.22299,0.35065 -3.62557,0.63766 -5.33912,0.63766 -4.07195,0 -4.49439,-2.59239 -6.28852,-8.40117 -1.51549,-4.90658 -4.67396,-12.34131 -2.48356,-13.33932 2.3438,-1.06789 11.65169,-4.07378 16.83046,-4.95827 2.59144,-0.44261 6.01922,6.70666 6.32418,6.31855 0.30492,-0.3881 -1.9542,-5.92328 -1.1411,-8.42111 6.48351,-19.9173 19.19716,-50.968551 26.82194,-66.417256 10.84768,-21.979024 21.55142,-36.015334 30.79666,-40.554712 8.19851,-4.025347 17.9715,3.66636 25.99798,11.806392 5.24819,5.322521 8.46439,11.563184 8.92811,17.323903 0.65781,8.172535 -2.40299,14.386594 -12.39859,31.257574 -4.93938,8.337049 -6.82134,8.611556 -12.54515,8.611556 -5.06822,0 -7.34104,-2.553751 -7.34104,-4.68956 0,-0.873315 -3.21039,-3.039951 -0.92758,-7.907984 7.23688,-15.432071 13.96344,-25.847578 13.96344,-32.276581 0,-4.248934 1.17855,-12.7645 -2.03871,-12.7645 -4.12742,0 -14.04807,13.356341 -19.7357,22.188222 -5.29963,8.229417 -13.80633,36.856286 -21.90817,57.132936 -3.7809,9.46252 -8.49942,23.0302 -8.13591,23.39373 0.0993,0.0993 1.53064,-0.0723 3.18096,-0.38027 12.23647,-2.28604 52.19998,-7.16727 57.95758,-5.06771 0.3567,0.13025 -1.9675,3.41858 0.35187,1.79053 8.62988,-6.05735 18.4288,-8.84599 25.80016,-7.34239 2.22685,0.45428 5.21373,1.48065 6.63753,2.28087 l 2.58892,1.45499 1.50586,-1.41466 c 2.1275,-1.99873 5.34265,-1.81208 9.92736,0.57637 4.58644,2.38938 7.39027,5.21973 7.39027,7.46013 0,0.90481 -1.58804,4.94871 -3.52912,8.98638 -6.38488,13.28201 -11.0511,26.44127 -13.32987,37.59252 -2.12116,10.38002 -1.50827,15.90758 2.10072,18.94428 3.34607,2.81559 10.38272,1.88593 19.19306,-2.53573 4.82304,-2.4205 14.41261,-8.55375 16.68025,-10.66822 0.82388,-0.76825 -0.9007,-4.46288 0.30752,-9.49517 7.39669,-30.80734 11.314,-47.64284 15.2363,-54.88513 3.23404,-5.97137 6.36981,-13.31033 11.09236,-11.2317 1.99685,0.87889 1.87791,0.9323 6.46555,3.7207 4.10448,2.49474 2.55129,12.67772 2.49053,17.01809 -0.0615,4.40805 -2.72569,13.63792 -7.60615,26.35359 -0.92447,2.40866 -1.47506,4.37589 -1.22338,4.37167 0.25178,-0.003 1.42352,-1.76617 2.60408,-3.91535 5.01849,-9.13587 19.57893,-26.23964 25.90498,-30.42986 1.64381,-1.08879 3.82909,-1.97966 4.85616,-1.97966 4.07876,0 8.00653,3.52247 9.91873,8.89535 2.64564,7.43395 11.27243,8.30954 15.09509,12.07331 4.23714,4.17188 -1.3112,8.94564 -4.8266,12.20286 -4.01751,3.72249 -7.74207,4.13433 -13.12599,1.45143 -3.71534,-1.85142 -6.10662,-4.64684 -9.22145,-10.77969 -1.04205,-2.05183 -3.41698,-11.71028 -3.81457,-11.71028 -1.23249,0 -12.7029,15.1933 -17.29596,21.33212 -4.58241,6.12452 -10.04264,24.87143 -15.67813,38.00521 -1.77954,4.14748 -4.28331,9.17855 -5.56371,11.1802 l -2.32811,3.63933 h -3.45858 c -4.40655,0 -9.61212,-1.53718 -11.21119,-3.31063 -1.00079,-1.10979 -1.22339,-2.26963 -1.14688,-5.97433 l 0.095,-4.59724 -3.66332,3.96172 c -4.20018,4.54225 -8.59714,7.97011 -13.33832,10.39832 -2.81141,1.43997 -4.10438,1.68398 -8.71924,1.64574 -4.87248,-0.0392 -5.89774,-0.28182 -10.17614,-2.39629 -5.18638,-2.56322 -9.1152,-6.41011 -11.64883,-11.40559 -1.88723,-3.72101 -4.22331,-11.54415 -4.22331,-14.14294 0,-2.69411 -0.9907,-3.13122 -2.75613,-1.21603 -6.87625,7.45916 -18.07813,16.09903 -25.20387,19.43941 -10.62903,4.9826 -22.43392,2.91857 -27.0481,-4.72925 -1.62231,-2.68884 -1.76044,-3.45804 -1.74758,-9.73193 0.0135,-5.75371 0.29968,-7.65051 1.85115,-12.20605 3.79136,-11.1306 11.36968,-23.98992 19.52278,-33.12723 2.01826,-2.26197 -0.38338,-5.34437 -0.5096,-5.47055 -0.12633,-0.12633 1.53985,1.59142 -1.12509,2.43773 -2.66495,0.84626 -11.70315,2.75008 -20.0848,4.23068 -21.73291,3.839 -31.88699,6.17893 -32.91503,7.58492 -1.18201,1.61646 -2.94186,7.87603 -5.62476,20.00621 -6.22971,28.16684 -2.6004,42.35595 0.55425,60.01767 1.06305,5.95152 0.4254,9.46845 -0.70494,11.21086 -1.58427,2.00313 -5.20457,4.5265 -8.81955,3.56995 z m 69.39274,-56.23699 c 6.38614,-3.66833 18.03543,-14.81522 28.21246,-26.99585 6.56419,-7.85655 10.78875,-14.48005 12.7115,-19.92967 0.84518,-2.39547 0.83098,-2.77801 -0.14283,-3.8542 -1.53573,-1.69689 -3.9868,-1.48484 -8.39988,0.72668 -10.87813,5.45138 -24.56431,21.357 -33.7965,39.27711 -3.54094,6.87325 -4.56936,10.33041 -3.46779,11.6577 1.07642,1.297 1.09629,1.29343 4.88304,-0.88177 z m -503.73014,30.39017 c -16.20589,-4.24375 -27.31924,-17.26362 -27.30483,-31.98912 0.004,-6.62004 0.45199,-10.86601 8.47655,-35.3744 1.22418,-3.73878 0.7166,-7.1494 -0.69571,-9.30083 -1.30414,-1.98663 -2.31805,-3.16212 -3.46814,-4.74968 -1.63516,-2.25715 -3.67882,-4.27475 -4.88001,-6.78983 -0.45382,-0.9502 -0.83636,-3.04628 -0.83636,-3.04628 l 2.563,-8.32385 c 1.39854,-4.54205 16.41356,5.05148 16.56445,4.78943 0.0732,-0.12763 1.97042,-5.63285 4.21574,-12.23433 6.77391,-19.91617 10.64051,-31.216999 12.94748,-36.981385 6.63177,-17.549497 6.76636,-18.466237 3.19268,-21.740147 -2.93839,-2.691976 -3.04362,-4.283605 -0.66444,-10.050822 2.42665,-5.882385 5.9813,-10.989344 8.64239,-12.416459 3.1878,-1.709675 7.53741,-1.552954 11.40854,0.411197 3.25625,1.651968 6.01255,2.065555 7.11693,1.067847 0.63479,-0.573495 4.98373,-1.480915 12.97497,-2.707268 4.92805,-0.756305 21.61605,0.123278 26.56916,1.400151 1.42732,0.368078 3.61702,0.924756 4.86593,1.237199 13.33154,3.335208 24.40168,-0.876823 28.07055,6.674769 1.29234,2.660041 1.11388,7.116744 0.10936,8.121209 -8.47714,2.959671 -17.16508,1.218812 -28.75508,1.416817 -17.48742,0.02179 -43.05072,3.045542 -44.22105,5.232359 -0.328,0.612571 -1.65145,3.98937 -2.94126,7.504038 -2.37194,6.463146 -2.80279,7.622289 -9.97347,26.827325 -2.19836,5.88782 -4.56465,12.23794 -5.25844,14.11132 -0.69376,1.87341 -1.8327,4.93895 -2.53093,6.81237 -2.34508,6.29178 -3.74292,11.18543 -3.43209,12.01522 0.22085,0.59005 1.18667,0.70701 3.40634,0.4125 4.22545,-0.56055 56.70993,-9.07522 57.26338,-8.52808 1.30272,1.28757 -7.77312,12.53281 -13.48624,15.6716 -2.53189,1.39105 -10.60332,6.06248 -13.61048,7.01027 -8.21351,2.5887 -11.91704,3.4472 -28.54698,6.6171 -6.42311,1.22431 -12.15357,2.41136 -12.73442,2.63791 -0.58081,0.22651 -1.50558,1.92712 -2.05494,3.77908 -0.54936,1.85193 -2.33574,7.86973 -3.96972,13.37278 -1.63401,5.50303 -3.41954,11.92615 -3.96775,14.27348 -0.54828,2.34738 -1.2792,5.32371 -1.62435,6.61404 -0.89988,3.36435 -0.78676,5.02197 0.60176,8.82085 1.49158,4.0808 3.37031,6.81137 6.11499,8.88755 2.44669,1.85086 9.52463,4.27538 12.48109,4.27538 3.39728,0 14.52674,-2.44478 19.42679,-4.26749 2.49788,-0.92907 5.31395,-1.92561 6.25782,-2.21448 1.46214,-0.44748 5.24016,-2.28313 14.36627,-6.98029 2.65181,-1.36483 3.69513,-0.72112 3.10099,1.91332 -1.39344,6.1782 -6.03102,11.82845 -13.88799,16.92055 -13.84484,8.97275 -29.13552,12.21012 -41.89251,8.86946 z m 684.74417,-6.10449 c -4.98076,-0.92928 -9.08754,-3.2524 -10.89942,-6.16551 -1.18114,-1.89908 -3.6207,-4.68239 -4.1544,-7.48583 -0.61967,-3.255 0.60019,-6.61568 1.29261,-9.85599 1.11398,-5.21297 3.02624,-10.22295 4.58282,-15.32129 4.05484,-13.28094 9.46341,-32.1261 12.3906,-39.77311 0.8878,-2.31941 3.07349,-9.37404 4.16747,-12.22875 3.82238,-9.97455 6.55503,-18.57614 8.7096,-18.57614 1.65945,0 7.46966,0.81786 9.1269,2.5845 3.02691,3.22666 4.42296,23.83875 -5.10575,48.07942 -4.62801,11.77314 -5.0613,13.15548 -3.91817,12.49756 0.47284,-0.27224 2.83589,-2.97646 5.25116,-6.00953 11.16417,-14.02033 27.78232,-31.22636 34.30102,-35.51459 3.92287,-2.5806 5.02866,-2.9903 8.75879,-3.24543 4.12473,-0.28226 4.3578,-0.21518 6.89075,1.97526 2.32964,2.01472 4.42517,5.32013 5.83957,9.21088 1.14342,3.14537 1.43762,7.63718 0.93473,14.27354 -1.32041,17.42252 -1.31524,17.19305 -0.39076,17.19305 0.4833,0 1.60781,-1.09486 2.49906,-2.43298 6.44295,-9.67486 24.12595,-29.11633 28.53305,-31.37067 2.8088,-1.43674 4.3095,-1.53213 6.80765,-0.43253 4.4104,1.94101 7.7483,4.60498 9.7524,7.78371 2.5172,3.99217 2.6402,6.13925 1.0887,18.99142 -1.3636,11.29565 -1.5605,31.03314 -0.3384,33.9302 2.3921,5.67098 11.2869,5.22987 25.2053,-1.24989 4.117,-1.91675 4.6981,-2.40221 4.7037,-3.92999 0.01,-2.66854 2.3024,-11.6821 4.1303,-16.23891 7.2307,-18.02419 24.0657,-38.22092 37.9188,-45.49061 6.6218,-3.47485 14.8929,-5.11832 20.193,-4.01233 2.1153,0.44142 5.055,1.43283 6.533,2.20307 l 2.6868,1.4005 1.6655,-1.31011 c 2.3317,-1.83413 5.031,-1.63599 9.7618,0.71654 4.6875,2.33095 7.2997,5.07289 7.2997,7.66197 0,0.99193 -1.7217,5.42189 -3.8262,9.84436 -4.3044,9.04565 -6.367,14.11024 -8.8233,21.66557 -3.6953,11.36526 -4.456,15.27675 -4.5006,23.14108 -0.05,8.77613 0.8067,10.77138 5.0893,11.85634 7.1578,1.81344 18.1462,-3.23314 37.6298,-17.28195 1.3951,-1.00595 2.6728,-1.69292 2.839,-1.52645 0.1665,0.16641 -0.5047,1.84721 -1.4915,3.73509 -5.7697,11.03833 -15.5,21.82273 -23.3798,25.9125 -5.4713,2.83972 -7.8307,3.29622 -13.1009,2.53495 -12.8389,-1.85457 -20.7751,-11.34405 -23.2268,-27.77229 -0.2265,-1.51655 -0.6149,-2.7574 -0.8632,-2.7574 -0.2488,0 -2.0476,1.6274 -3.998,3.61642 -10.5461,10.75477 -22.8988,18.57426 -31.2029,19.752 -7.768,1.10169 -15.4044,-1.32001 -18.1807,-5.7657 -0.7054,-1.1293 -1.0266,-0.99405 -4.7093,1.98327 -10.9209,8.82932 -19.6606,10.79324 -31.0127,6.96905 -10.84735,-3.65423 -15.55705,-9.84619 -17.32295,-22.77489 -0.7441,-5.44762 -0.4383,-12.02087 1.5095,-21.5841 0.3872,-1.89977 7.97945,-24.917 5.4564,-17.52396 -0.351,-1.05386 -11.8505,16.09185 -21.8433,30.43782 -17.83679,25.60739 -20.72016,30.63216 -28.41548,25.48939 -5.72112,-3.82349 -9.9213,-10.27867 -7.89191,-19.72521 1.6702,-7.77444 2.47612,-12.39263 4.7291,-22.0345 2.29469,-9.82037 10.09098,-27.95664 8.98059,-28.64258 -1.49119,-0.92161 -25.58795,24.73602 -37.37596,39.63463 -3.20784,4.0544 -7.02705,8.87169 -8.48713,10.70512 -3.88707,4.88131 -11.41725,22.57784 -14.04052,27.54388 -1.24892,2.36423 -2.85471,4.55467 -3.56839,4.86756 -0.77952,0.34194 -2.85201,0.2792 -5.19039,-0.15725 z m 179.94238,-25.52064 c 4.0861,-2.69738 10.1991,-8.24938 16.9671,-15.4099 2.6762,-2.83149 5.0216,-5.29696 5.2118,-5.47878 1.5588,-1.4903 8.2922,-9.93809 10.4285,-13.08385 3.1147,-4.58664 7.0676,-12.37215 7.0676,-13.9201 0,-1.38407 -1.8576,-2.79974 -3.7086,-2.82626 -3.4759,-0.0497 -11.5731,5.05315 -17.6078,11.09679 -8.6485,8.66118 -16.2961,19.28641 -21.7864,30.26864 -3.3865,6.77395 -4.3371,9.8911 -3.4823,11.41861 0.7893,1.41044 2.3531,0.94304 6.9101,-2.06515 z m -768.4003,21.01124 c -11.48295,-2.62334 -19.13804,-10.21236 -22.15675,-21.96566 -1.58296,-6.1633 -0.90903,-15.9792 1.62152,-23.6161 5.35455,-16.15954 13.76949,-33.0941 25.90848,-40.78452 7.38106,-4.67616 16.39334,-4.34425 22.80126,-0.9289 4.54983,2.42504 13.27472,-0.40403 15.7076,4.82267 1.97494,4.24288 2.02705,7.76448 0.36319,9.81731 -1.72536,2.12846 -8.69337,0.97017 -13.48321,-1.37338 -4.16246,-3.00226 -6.87325,0.27256 -9.21712,2.416 -3.06992,2.80745 -5.72992,5.00374 -8.36272,7.74217 -5.96877,6.20823 -14.44735,15.31583 -16.79311,19.63433 -6.61103,12.17042 -5.38314,27.38835 1.34032,31.04157 3.30627,1.79654 11.75331,1.15418 19.68365,-1.49677 6.8872,-2.30225 19.19972,-8.56311 27.19566,-13.82879 5.22823,-3.44311 5.58715,-3.82637 6.00832,-6.41542 2.23456,-13.73705 18.63658,-45.90334 28.60739,-56.10243 5.40856,-5.53235 6.95223,-5.88762 12.28669,-2.82783 5.4252,3.11183 9.3525,8.48096 9.37323,12.81445 0.004,0.99005 5.05046,5.40686 9.65334,8.45021 6.27259,4.14741 10.14387,8.49398 11.0945,12.4567 1.48817,6.20333 -0.43124,14.63298 -4.84591,21.28187 -6.00692,9.04714 -21.71933,25.61269 -28.68706,30.2449 -6.17314,4.10388 -9.26585,5.17203 -15.10947,5.21855 -4.01778,0.0305 -5.60104,-0.2888 -9.08312,-1.84044 -6.77007,-3.01666 -9.50412,-5.27126 -11.68506,-9.63571 -1.0668,-2.13491 -1.93971,-4.42844 -1.93971,-5.09681 0,-0.86246 -1.3654,0.16466 -4.70374,3.53767 -6.24557,6.31087 -16.53884,13.11662 -23.03798,15.23248 -6.18607,2.01389 -16.5632,2.56722 -22.53993,1.20182 z m 73.44925,-20.49974 c 6.45928,-3.7045 22.32419,-20.03504 28.52468,-29.36192 3.9455,-5.93488 5.07568,-9.16297 4.0636,-11.60643 -0.94488,-2.28113 -3.48339,-3.10243 -11.13631,-3.60279 l -5.66211,-0.37024 -3.51122,2.65097 c -5.87677,4.43703 -10.8817,13.00751 -15.98444,27.3719 -3.34526,9.41709 -4.11472,12.95092 -3.29142,15.11649 0.88049,2.3158 2.70395,2.26421 6.99722,-0.1982 z m 138.70703,20.44641 c -0.35674,-0.11891 -2.74019,-0.82661 -5.29634,-1.57233 -5.43653,-1.58611 -10.41389,-5.18284 -13.15603,-9.50678 -2.1556,-3.39898 -5.21406,-13.3099 -5.41665,-20.42775 -0.15071,-5.29695 7.84221,-34.44476 9.51469,-41.44329 0.51094,-2.13803 -8.76815,8.98546 -8.89634,8.85727 -0.61513,-0.61514 -6.06668,7.35234 -18.05012,19.86044 -22.03773,23.00253 -19.24481,29.45276 -25.18438,37.06181 -2.97542,3.81169 -6.55127,6.19196 -9.30217,6.19196 -2.17429,0 -5.57131,-2.45297 -7.81192,-5.64094 -3.44881,-4.90711 -9.27783,-8.4201 -1.14001,-30.84695 7.53629,-20.76914 13.5206,-51.34013 15.00038,-57.44902 1.20605,-4.97903 10.96194,-8.66466 12.63977,-9.08579 1.93837,-0.48651 5.3506,12.22392 8.21171,14.88458 3.38542,3.1482 2.94809,5.0569 -8.30195,36.23443 -1.22325,3.38996 -2.69675,7.26142 -3.27447,8.60315 -0.57772,1.34183 -0.85602,2.63404 -0.61836,2.87166 0.23783,0.23782 7.21733,-6.28182 15.51042,-14.48776 8.2931,-8.20589 16.53816,-15.9194 18.32231,-17.14114 10.18517,-6.97414 15.06426,-8.88397 19.40398,-7.59528 3.5928,1.06688 8.58768,6.07003 9.17258,9.18779 0.42732,2.27821 -0.57832,9.46505 -1.77545,12.6876 -0.3245,0.87297 -1.50273,5.83626 -2.61875,11.02955 -1.67844,7.81055 -2.03724,10.95601 -2.07618,18.20109 -0.0488,9.03146 0.39813,11.26167 3.01841,15.06826 3.61732,5.25527 13.77878,2.9725 26.7791,-6.01597 1.42734,-0.98687 3.836,-2.55511 5.35258,-3.48504 2.5893,-1.58768 2.75735,-1.8699 2.75735,-4.62952 0,-4.0699 1.6514,-11.66737 3.9881,-18.34771 3.65829,-10.45866 17.34831,-35.16651 23.50764,-42.42679 6.26527,-7.38511 9.61292,-7.93782 16.53972,-2.73087 4.00936,3.01388 6.57066,6.95363 6.57066,10.10694 0,2.02778 1.41739,3.36508 10.52216,9.92754 6.12662,4.41585 7.53475,5.7677 9.07032,8.70769 1.46431,2.80353 1.81775,4.326 1.81775,7.82998 0,9.3194 -3.47324,15.76137 -16.19579,30.03913 -10.24369,11.49588 -15.9842,16.52605 -22.58008,19.78593 -4.21535,2.08333 -5.33098,2.35339 -9.75476,2.36167 -4.18838,0.009 -5.79252,-0.32887 -9.93351,-2.08468 -5.88256,-2.49421 -9.81052,-5.67378 -11.36669,-9.2009 -0.62568,-1.41818 -1.30825,-2.57854 -1.51676,-2.57854 -0.20865,0 -2.41503,2.07839 -4.90332,4.61865 -2.48828,2.54026 -6.25302,5.75494 -8.36605,7.14372 -5.9381,3.90273 -16.34794,6.70927 -20.16355,5.43621 z m 57.50669,-21.25115 c 7.80575,-5.20836 23.44097,-22.0422 29.00212,-31.22545 2.46198,-4.06556 4.43315,-11.32458 3.13235,-13.0594 -1.18061,-1.57438 -7.09705,-2.44937 -12.27558,-2.45869 -3.68402,-0.004 -5.83513,3.04335 -8.02922,4.63263 -6.57197,4.76071 -12.53938,15.02837 -17.69176,30.44101 -3.53984,10.5889 -3.55841,14.42489 -0.0697,14.42489 1.04022,0 3.5499,-1.16558 5.93195,-2.75499 z"
       id="path1"
       sodipodi:nodetypes="csssssssssssssssssscssssscccsscssscsssssssscscsssssssssssscssscsscssscssccssssssscccssscssssccssaacscccssccsscssscccssccccssssssscssscsscccccsaaasssssscsssssscscssssccssscssssccsssssssscsssssccsssscssssccsscssssssscsssssccsacsssssscsscsccsscscccssscsssccsssssssssssssssssscsscsccsssssssssssscsssssscssccsscc" />
    <path
       style="fill:#af6c3f;fill-opacity:1;stroke-width:0.810993"
       d="m 638.97195,249.30433 c -1.41157,-0.37373 -3.58753,-1.73633 -4.95366,-3.10246 -6.3067,-6.30664 -9.27143,-25.754 -7.11998,-46.70334 1.34222,-13.06932 5.29526,-34.75471 7.44735,-40.85458 0.54672,-1.54943 0.89858,-2.9126 0.78189,-3.02929 -0.11674,-0.11675 -1.21268,0.0749 -2.43559,0.42556 -1.22299,0.35065 -3.62557,0.63767 -5.33912,0.63767 -4.07195,0 -5.76395,-1.67549 -7.55809,-7.48427 -1.51548,-4.90658 -1.35899,-6.27563 0.83141,-7.27364 2.3438,-1.06789 10.66426,-3.22741 15.84303,-4.1119 2.59144,-0.4426 4.96125,-1.1223 5.26621,-1.51041 0.30492,-0.3881 1.21969,-2.74938 2.0328,-5.2472 6.48351,-19.91731 17.99813,-48.782093 25.62291,-64.230798 10.84769,-21.979024 21.26929,-35.73321 30.51454,-40.272588 8.1985,-4.025347 16.27875,-1.97613 24.30523,6.163902 5.24819,5.32252 8.46439,11.563183 8.92811,17.323903 0.65781,8.172534 -2.40299,16.381515 -12.39858,33.25249 -4.93939,8.337054 -6.82135,9.808515 -12.54516,9.808515 -5.06822,0 -7.34104,-0.957817 -7.34104,-3.093624 0,-0.873313 1.86785,-5.570768 4.15066,-10.438804 7.23688,-15.432066 10.77157,-26.109649 10.77157,-32.538651 0,-4.248934 -0.70782,-5.183798 -3.92508,-5.183798 -4.12742,0 -9.65925,4.977671 -15.34687,13.809552 -5.29964,8.229417 -18.19516,35.659332 -26.297,55.935981 -3.7809,9.46253 -8.49942,23.0302 -8.13591,23.39374 0.0993,0.0993 1.53064,-0.0723 3.18097,-0.38028 12.23646,-2.28603 47.68598,-2.65328 53.44358,-0.55371 0.3567,0.13024 2.54649,-1.09541 4.86586,-2.72346 8.62989,-6.05735 18.4288,-8.84599 25.80016,-7.34239 2.22685,0.45428 5.21373,1.48065 6.63753,2.28086 l 2.58892,1.45499 1.50586,-1.41465 c 2.1275,-1.99874 5.34265,-1.81209 9.92736,0.57637 4.58644,2.38937 7.39027,5.21973 7.39027,7.46013 0,0.90481 -1.58804,4.94871 -3.52912,8.98637 -6.38488,13.28201 -11.0511,26.44128 -13.32987,37.59252 -2.12116,10.38003 -1.50826,15.90759 2.10072,18.94429 3.34607,2.81559 10.38272,1.88592 19.19306,-2.53573 4.82304,-2.42051 14.41261,-8.55375 16.68025,-10.66822 0.82388,-0.76825 1.92055,-3.89864 3.12876,-8.93093 7.3967,-30.80733 11.314,-43.97521 15.2363,-51.2175 3.23405,-5.97138 4.39495,-6.53935 9.11744,-4.46072 1.99691,0.87889 4.65245,2.42622 5.90131,3.43857 2.21151,1.79258 2.2692,1.957 2.20839,6.29737 -0.0612,4.40805 -2.72569,13.63792 -7.6061,26.35358 -0.92445,2.40867 -1.47504,4.3759 -1.22336,4.37168 0.2518,-0.003 1.42349,-1.76617 2.60408,-3.91535 5.01851,-9.13588 19.57888,-26.23965 25.90493,-30.42986 1.64388,-1.0888 3.82911,-1.97966 4.85625,-1.97966 4.07868,0 8.00646,3.52246 9.91862,8.89534 2.64573,7.43395 5.6867,12.69838 9.50935,16.46215 4.23716,4.17187 4.27458,4.55681 0.75919,7.81403 -4.01755,3.72249 -7.74208,4.13433 -13.12598,1.45143 -3.71529,-1.85142 -6.10666,-4.64684 -9.22147,-10.77969 -1.04205,-2.05184 -2.21998,-3.73059 -2.61755,-3.73059 -1.23249,0 -11.10702,10.40548 -15.7001,16.54429 -4.58239,6.12453 -12.83553,21.67956 -18.47099,34.81334 -1.77954,4.14749 -4.28331,9.17855 -5.56371,11.18021 l -2.32811,3.63933 h -3.45858 c -4.40655,0 -9.61212,-1.53718 -11.21119,-3.31064 -1.00079,-1.10978 -1.22338,-2.26962 -1.14688,-5.97432 l 0.095,-4.59724 -3.66332,3.96171 c -4.20018,4.54226 -8.59714,7.97012 -13.33832,10.39833 -2.81141,1.43996 -4.10438,1.68398 -8.71924,1.64574 -4.87248,-0.0392 -5.89774,-0.28183 -10.17614,-2.3963 -5.18638,-2.56322 -9.1152,-6.4101 -11.64883,-11.40558 -1.88723,-3.72101 -4.22331,-11.54415 -4.22331,-14.14294 0,-2.69411 -0.9907,-3.13122 -2.75613,-1.21603 -6.87625,7.45916 -18.07813,16.09903 -25.20387,19.43941 -10.62903,4.9826 -22.43392,2.91857 -27.0481,-4.72925 -1.62231,-2.68884 -1.76044,-3.45804 -1.74758,-9.73193 0.0135,-5.75371 0.29968,-7.65051 1.85115,-12.20606 3.79136,-11.1306 11.36968,-23.98992 19.52278,-33.12723 2.01826,-2.26196 3.56636,-4.21587 3.44014,-4.34205 -0.12632,-0.12632 -2.40989,0.46293 -5.07483,1.30924 -2.66495,0.84626 -11.70315,2.75008 -20.08479,4.23068 -21.73292,3.839 -31.887,6.17893 -32.91504,7.58492 -1.18201,1.61646 -2.94186,7.87603 -5.62476,20.00621 -6.22971,28.16684 -7.67864,49.76171 -4.52399,67.42343 1.06305,5.95152 1.06018,6.25929 -0.0702,7.50799 -1.30215,1.43887 -1.50169,1.45838 -5.11666,0.50184 z m 69.99226,-56.87177 c 6.38614,-3.66833 18.03543,-14.81522 28.21246,-26.99585 6.56419,-7.85656 10.78875,-14.48005 12.7115,-19.92967 0.84518,-2.39547 0.83098,-2.77802 -0.14283,-3.8542 -1.53573,-1.69689 -3.9868,-1.48484 -8.39988,0.72667 -10.87813,5.45139 -24.56431,21.35701 -33.7965,39.27712 -3.54094,6.87325 -4.56936,10.33041 -3.46779,11.6577 1.07642,1.297 1.09629,1.29343 4.88304,-0.88177 z m -503.73014,30.39017 c -16.20589,-4.24375 -27.31924,-17.26363 -27.30483,-31.98912 0.004,-6.62004 1.05047,-10.66652 9.07503,-35.17492 1.22417,-3.73878 0.87992,-4.49499 -3.18937,-7.00667 -2.11286,-1.3042 -5.17844,-3.67048 -6.81231,-5.25842 -2.92044,-2.83828 -2.97067,-2.95763 -2.97067,-7.05484 v -4.1677 l 3.08178,-0.45859 c 4.70073,-0.69951 18.38843,-3.41225 18.53932,-3.67431 0.0732,-0.12762 1.97042,-5.63284 4.21574,-12.23433 6.77391,-19.91617 10.24153,-29.820549 12.94748,-36.981385 6.63177,-17.549496 6.76636,-18.466236 3.19268,-21.740145 -2.93839,-2.691977 -3.04362,-4.283605 -0.66444,-10.050823 2.42665,-5.882385 5.9813,-10.989344 8.64239,-12.416458 3.1878,-1.709676 7.53741,-1.552954 11.40855,0.411197 3.25624,1.651967 6.01254,2.065554 7.11692,1.067846 0.63479,-0.573494 4.98373,-1.480914 12.97497,-2.707267 4.92805,-0.756306 21.61605,0.123278 26.56916,1.40015 1.42732,0.368078 3.61702,0.924756 4.86593,1.237199 13.33154,3.335208 19.21488,7.102864 22.88375,14.654456 1.29234,2.660041 1.31338,2.927409 0.30883,3.931873 -1.00447,1.004466 -1.24504,1.003726 -3.53862,-0.0087 -4.0984,-1.812864 -8.93482,-2.378256 -20.22915,-2.364847 -17.48743,0.02179 -43.05072,3.045542 -44.22106,5.232359 -0.32799,0.612572 -1.65144,3.98937 -2.94125,7.504039 -2.37195,6.463146 -2.80279,7.622292 -9.97347,26.827322 -2.19836,5.887829 -4.56465,12.237954 -5.25844,14.111324 -0.69376,1.87342 -1.8327,4.93895 -2.53094,6.81237 -2.34507,6.29179 -3.74291,11.18544 -3.43208,12.01523 0.22085,0.59004 1.18667,0.70701 3.40634,0.4125 4.22545,-0.56055 52.3211,-0.69655 52.87456,-0.14941 1.30271,1.28756 -2.39687,5.00051 -8.10998,8.1393 -2.53189,1.39105 -11.59076,5.2161 -14.59792,6.1639 -8.21351,2.5887 -11.91705,3.4472 -28.54698,6.6171 -6.42312,1.2243 -12.15357,2.41136 -12.73443,2.63791 -0.58081,0.22651 -1.50557,1.92712 -2.05493,3.77907 -0.54936,1.85194 -2.33574,7.86974 -3.96972,13.37279 -1.63401,5.50302 -3.41954,11.92615 -3.96775,14.27348 -0.54828,2.34738 -1.2792,5.3237 -1.62436,6.61404 -0.89987,3.36434 -0.78675,5.02196 0.60177,8.82085 1.49158,4.0808 3.37031,6.81137 6.11499,8.88755 2.44669,1.85085 9.52463,4.27538 12.48109,4.27538 3.39728,0 14.52674,-2.44479 19.42678,-4.2675 2.49789,-0.92906 5.31396,-1.9256 6.25783,-2.21447 1.46214,-0.44748 5.24016,-2.28314 14.36627,-6.98029 2.65181,-1.36483 3.69512,-0.72112 3.10098,1.91332 -1.39343,6.17819 -6.03101,11.82844 -13.88798,16.92055 -13.84484,8.97274 -29.13552,12.21012 -41.89251,8.86946 z m 684.74419,-6.10449 c -4.98075,-0.92928 -9.0875,-3.2524 -10.89943,-6.16551 -1.18115,-1.89908 -1.41636,-3.19176 -1.36157,-7.48583 0.0345,-2.85471 0.52833,-6.79615 1.09318,-8.75879 0.56485,-1.96258 1.46691,-5.17411 2.00448,-7.13674 0.53768,-1.96262 1.60824,-5.46609 2.3789,-7.78556 0.77065,-2.31945 1.63363,-5.09305 1.91761,-6.16355 0.70518,-2.65851 9.46748,-28.19589 11.4645,-33.41301 0.88782,-2.31941 2.50931,-6.55279 3.60326,-9.4075 3.82232,-9.97455 5.42655,-12.65153 7.58104,-12.65153 1.65948,0 8.8661,3.83861 10.52335,5.60524 3.02694,3.22667 1.33383,10.37941 -8.1949,34.62008 -4.62805,11.77314 -5.06126,13.15547 -3.9182,12.49755 0.47286,-0.27223 2.83594,-2.97645 5.25115,-6.00953 11.16425,-14.02032 27.78234,-31.22636 34.30106,-35.51459 3.92288,-2.58059 5.02864,-2.9903 8.75874,-3.24542 4.12479,-0.28226 4.35788,-0.21519 6.8908,1.97526 2.32967,2.01471 4.42514,5.32012 5.83961,9.21088 1.14341,3.14537 1.43751,7.63718 0.93471,14.27353 -1.32049,17.42253 -1.31525,17.19306 -0.3908,17.19306 0.4833,0 1.6078,-1.09486 2.4991,-2.43298 6.443,-9.67487 24.1259,-29.11634 28.533,-31.37067 2.80885,-1.43674 4.30955,-1.53214 6.80765,-0.43254 4.4105,1.94102 7.7482,4.60499 9.7524,7.78372 2.5172,3.99216 2.6402,6.13925 1.0887,18.99142 -1.3636,11.29565 -1.5605,31.03314 -0.3384,33.93019 2.3921,5.67099 11.287,5.22988 25.2053,-1.24988 4.1171,-1.91675 4.6982,-2.40221 4.7038,-3.92999 0.011,-2.66854 2.3024,-11.6821 4.1302,-16.23891 7.2307,-18.02419 24.0657,-38.22093 37.9189,-45.49061 6.6217,-3.47486 14.8928,-5.11832 20.1929,-4.01233 2.1153,0.44142 5.055,1.43283 6.533,2.20307 l 2.6868,1.4005 1.6655,-1.31012 c 2.3317,-1.83412 5.031,-1.63598 9.7618,0.71655 4.6875,2.33095 7.2997,5.07289 7.2997,7.66197 0,0.99193 -1.7217,5.42188 -3.8262,9.84435 -4.3044,9.04566 -6.367,14.11024 -8.8233,21.66557 -3.6953,11.36526 -4.456,15.27675 -4.5005,23.14109 -0.05,8.77613 0.8066,10.77138 5.0892,11.85634 7.1578,1.81344 18.1462,-3.23314 37.6298,-17.28196 1.3951,-1.00595 2.6728,-1.69291 2.839,-1.52644 0.1665,0.16641 -0.5047,1.8472 -1.4915,3.73509 -5.7697,11.03833 -15.5,21.82273 -23.3798,25.9125 -5.4713,2.83972 -7.8307,3.29622 -13.1009,2.53494 -12.8389,-1.85456 -20.7751,-11.34404 -23.2268,-27.77229 -0.2265,-1.51654 -0.6149,-2.75739 -0.8632,-2.75739 -0.2488,0 -2.0476,1.62739 -3.9979,3.61642 -10.5462,10.75477 -22.8989,18.57426 -31.203,19.75199 -7.7679,1.1017 -15.4044,-1.32 -18.1807,-5.76569 -0.7053,-1.1293 -1.0266,-0.99406 -4.7093,1.98327 -10.9209,8.82931 -19.6606,10.79324 -31.0127,6.96905 -10.8474,-3.65423 -15.55705,-9.84619 -17.32285,-22.77489 -0.7442,-5.44762 -0.039,-14.21529 1.9083,-23.77853 0.3873,-1.89976 0.5984,-3.77083 0.4692,-4.15797 -0.351,-1.05386 -6.8633,7.3142 -16.8559,21.66017 -17.83692,25.60738 -21.11922,28.23825 -28.81453,23.09548 -5.72111,-3.8235 -7.12845,-8.88223 -5.09902,-18.32877 1.67016,-7.77444 2.75498,-13.29067 4.5296,-23.03197 0.94261,-5.17415 1.98723,-10.63166 2.32144,-12.12783 0.74938,-3.35445 0.7839,-6.50174 0.0757,-6.93911 -1.4912,-0.92161 -19.80262,18.35227 -31.59063,33.25088 -3.20791,4.0544 -7.02711,8.87169 -8.48712,10.70512 -3.88714,4.88131 -13.21273,18.98698 -15.83597,23.95302 -1.24897,2.36423 -2.85476,4.55467 -3.5684,4.86755 -0.77956,0.34194 -2.85198,0.27921 -5.19034,-0.15725 z M 1069.9206,191.1976 c 4.0861,-2.69739 10.1991,-8.24938 16.9671,-15.4099 2.6762,-2.83149 5.0216,-5.29697 5.2118,-5.47878 1.5588,-1.49031 8.2922,-9.93809 10.4285,-13.08386 3.1147,-4.58663 7.0676,-12.37214 7.0676,-13.92009 0,-1.38408 -1.8576,-2.79974 -3.7086,-2.82626 -3.4759,-0.0497 -11.5731,5.05315 -17.6078,11.09679 -8.6485,8.66118 -16.2961,19.28641 -21.7864,30.26864 -3.3865,6.77394 -4.337,9.8911 -3.4823,11.41861 0.7893,1.41043 2.3531,0.94304 6.9101,-2.06515 z m -768.40028,21.01123 c -11.48295,-2.62333 -19.13804,-10.21235 -22.15675,-21.96565 -1.58296,-6.1633 -0.90903,-15.97921 1.62152,-23.6161 5.35455,-16.15954 17.15499,-32.24773 29.29398,-39.93815 7.38106,-4.67615 13.00784,-5.19062 19.41576,-1.77527 4.54983,2.42503 7.63223,5.80271 10.06511,11.0294 1.97495,4.24288 2.08376,6.44531 0.4199,8.49813 -1.72536,2.12846 -6.5987,1.96764 -11.38854,-0.37591 -2.46678,-1.20684 -4.00388,-1.58171 -5.22727,-1.2746 -1.934,0.48537 -6.77995,4.00054 -9.1607,6.64495 -2.79246,3.10178 -13.00249,17.84614 -15.34826,22.16464 -6.61103,12.17043 -6.52875,23.76084 0.19472,27.41405 3.30626,1.79654 11.7533,1.15418 19.68365,-1.49676 6.88719,-2.30225 19.19971,-8.56312 27.19565,-13.8288 5.22823,-3.4431 5.58715,-3.82637 6.00832,-6.41541 2.23456,-13.73706 18.63658,-45.90334 28.60739,-56.10244 5.40856,-5.53234 6.95224,-5.88761 12.2867,-2.82782 5.42519,3.11183 9.35249,8.48096 9.37322,12.81445 0.004,0.99004 5.05046,5.40686 9.65334,8.45021 6.27259,4.1474 10.14387,8.49398 11.0945,12.45669 1.48817,6.20333 -0.43124,14.63299 -4.84591,21.28187 -6.00692,9.04715 -21.71933,25.6127 -28.68706,30.2449 -6.17314,4.10389 -9.26585,5.17204 -15.10947,5.21855 -4.01777,0.0305 -5.60104,-0.28879 -9.08312,-1.84044 -6.77007,-3.01665 -9.50412,-5.27126 -11.68506,-9.6357 -1.0668,-2.13491 -1.93971,-4.42844 -1.93971,-5.09681 0,-0.86246 -1.3654,0.16466 -4.70374,3.53767 -6.24557,6.31087 -16.53884,13.11662 -23.03798,15.23248 -6.18607,2.01389 -16.5632,2.56721 -22.53993,1.20182 z m 73.44925,-20.49973 c 6.45928,-3.7045 22.32419,-20.03504 28.52468,-29.36192 3.9455,-5.93488 5.07568,-9.16297 4.0636,-11.60644 -0.94488,-2.28112 -3.48339,-3.10242 -11.13631,-3.60279 l -5.66211,-0.37023 -3.51122,2.65097 c -5.87677,4.43703 -10.8817,13.0075 -15.98444,27.3719 -3.34526,9.41709 -4.11472,12.95091 -3.29142,15.11649 0.88049,2.31579 2.70395,2.26421 6.99722,-0.1982 z m 138.70703,20.44641 c -0.35674,-0.11892 -2.74019,-0.82662 -5.29634,-1.57234 -5.43653,-1.5861 -10.41389,-5.18283 -13.15603,-9.50678 -2.1556,-3.39897 -3.42451,-9.05798 -3.62709,-16.17583 -0.15072,-5.29695 1.53866,-18.94795 3.21114,-25.94648 0.51094,-2.13803 0.82408,-3.99227 0.69589,-4.12047 -0.61513,-0.61514 -6.06668,4.5311 -18.05012,17.0392 -22.03773,23.00253 -24.32305,25.50301 -30.26262,33.11207 -2.97542,3.81169 -6.55127,6.19195 -9.30217,6.19195 -2.17429,0 -5.57131,-2.45296 -7.81192,-5.64094 -3.4488,-4.9071 -3.08656,-8.09781 3.37398,-29.71845 6.39297,-21.39442 12.95635,-44.32368 14.43613,-50.43257 1.20605,-4.97902 2.62337,-7.63296 4.3012,-8.05409 1.93837,-0.48651 9.73943,3.04728 12.60054,5.70794 3.38542,3.1482 2.94809,5.0569 -8.30195,36.23443 -1.22325,3.38995 -2.69675,7.26142 -3.27447,8.60315 -0.57771,1.34183 -0.85602,2.63404 -0.61836,2.87166 0.23783,0.23782 7.21733,-6.28182 15.51043,-14.48777 8.29309,-8.20588 16.53815,-15.91939 18.3223,-17.14113 10.18517,-6.97414 15.06426,-8.88397 19.40398,-7.59528 3.5928,1.06687 8.58768,6.07003 9.17258,9.18779 0.42732,2.27821 -0.57832,9.46505 -1.77545,12.6876 -0.3245,0.87297 -1.50273,5.83626 -2.61875,11.02955 -1.67844,7.81054 -2.03724,10.95601 -2.07618,18.20108 -0.0488,9.03147 0.39813,11.26168 3.01841,15.06826 3.61732,5.25528 13.77878,2.9725 26.7791,-6.01596 1.42734,-0.98688 3.83601,-2.55512 5.35258,-3.48505 2.5893,-1.58767 2.75735,-1.8699 2.75735,-4.62951 0,-4.06991 1.6514,-11.66737 3.9881,-18.34771 3.65829,-10.45866 17.34831,-35.16651 23.50764,-42.42679 6.26527,-7.38511 9.61292,-7.93783 16.53972,-2.73087 4.00936,3.01388 6.57066,6.95363 6.57066,10.10693 0,2.02778 1.41739,3.36508 10.52216,9.92755 6.12662,4.41585 7.53475,5.76769 9.07033,8.70769 1.4643,2.80352 1.81774,4.32599 1.81774,7.82998 0,9.31939 -3.47324,15.76137 -16.19579,30.03913 -10.24369,11.49588 -15.9842,16.52604 -22.58008,19.78593 -4.21535,2.08333 -5.33098,2.35339 -9.75476,2.36167 -4.18838,0.009 -5.79252,-0.32887 -9.93351,-2.08468 -5.88256,-2.49421 -9.81052,-5.67378 -11.36668,-9.2009 -0.62569,-1.41819 -1.30826,-2.57855 -1.51677,-2.57855 -0.20865,0 -2.41502,2.0784 -4.90332,4.61866 -2.48828,2.54025 -6.25302,5.75493 -8.36605,7.14372 -5.9381,3.90273 -16.34794,6.70926 -20.16355,5.43621 z m 57.50669,-21.25115 c 7.80576,-5.20836 23.44097,-22.0422 29.00212,-31.22545 2.46198,-4.06556 3.23619,-7.93322 1.9354,-9.66804 -1.18062,-1.57439 -7.09706,-3.04784 -12.27558,-3.05716 -3.68402,-0.004 -4.63818,0.25046 -6.83227,1.83974 -6.57197,4.76071 -12.53938,15.02837 -17.69176,30.441 -3.53984,10.58891 -3.5584,14.4249 -0.0697,14.4249 1.04022,0 3.5499,-1.16558 5.93195,-2.75499 z"
       id="path1-4" />
  </g>
</svg>
